<?xml version="1.0" encoding="utf-8" standalone="no"?>
<!DOCTYPE svg PUBLIC "-//W3C//DTD SVG 1.1//EN"
  "http://www.w3.org/Graphics/SVG/1.1/DTD/svg11.dtd">
<svg xmlns:xlink="http://www.w3.org/1999/xlink" width="711.848519pt" height="423.878125pt" viewBox="0 0 711.848519 423.878125" xmlns="http://www.w3.org/2000/svg" version="1.1">
 <metadata>
  <rdf:RDF xmlns:dc="http://purl.org/dc/elements/1.1/" xmlns:cc="http://creativecommons.org/ns#" xmlns:rdf="http://www.w3.org/1999/02/22-rdf-syntax-ns#">
   <cc:Work>
    <dc:type rdf:resource="http://purl.org/dc/dcmitype/StillImage"/>
    <dc:date>2026-05-09T15:09:03.568514</dc:date>
    <dc:format>image/svg+xml</dc:format>
    <dc:creator>
     <cc:Agent>
      <dc:title>Matplotlib v3.10.0, https://matplotlib.org/</dc:title>
     </cc:Agent>
    </dc:creator>
   </cc:Work>
  </rdf:RDF>
 </metadata>
 <defs>
  <style type="text/css">*{stroke-linejoin: round; stroke-linecap: butt}</style>
 </defs>
 <g id="figure_1">
  <g id="patch_1">
   <path d="M 0 423.878125 
L 711.848519 423.878125 
L 711.848519 0 
L 0 0 
z
" style="fill: #ffffff"/>
  </g>
  <g id="axes_1">
   <g id="patch_2">
    <path d="M 125.975625 376.5 
L 696.681216 376.5 
L 696.681216 7.2 
L 125.975625 7.2 
z
" style="fill: #ffffff"/>
   </g>
   <g id="matplotlib.axis_1">
    <g id="xtick_1">
     <g id="line2d_1">
      <path d="M 125.975625 376.5 
L 125.975625 7.2 
" clip-path="url(#pf59a80521a)" style="fill: none; stroke: #000000; stroke-opacity: 0.08; stroke-width: 0.5; stroke-linecap: round"/>
     </g>
     <g id="text_1">
      <!-- 0.00 -->
      <g transform="translate(114.842813 393.598437) scale(0.1 -0.1)">
       <defs>
        <path id="DejaVuSans-30" d="M 2034 4250 
Q 1547 4250 1301 3770 
Q 1056 3291 1056 2328 
Q 1056 1369 1301 889 
Q 1547 409 2034 409 
Q 2525 409 2770 889 
Q 3016 1369 3016 2328 
Q 3016 3291 2770 3770 
Q 2525 4250 2034 4250 
z
M 2034 4750 
Q 2819 4750 3233 4129 
Q 3647 3509 3647 2328 
Q 3647 1150 3233 529 
Q 2819 -91 2034 -91 
Q 1250 -91 836 529 
Q 422 1150 422 2328 
Q 422 3509 836 4129 
Q 1250 4750 2034 4750 
z
" transform="scale(0.015625)"/>
        <path id="DejaVuSans-2e" d="M 684 794 
L 1344 794 
L 1344 0 
L 684 0 
L 684 794 
z
" transform="scale(0.015625)"/>
       </defs>
       <use xlink:href="#DejaVuSans-30"/>
       <use xlink:href="#DejaVuSans-2e" transform="translate(63.623047 0)"/>
       <use xlink:href="#DejaVuSans-30" transform="translate(95.410156 0)"/>
       <use xlink:href="#DejaVuSans-30" transform="translate(159.033203 0)"/>
      </g>
     </g>
    </g>
    <g id="xtick_2">
     <g id="line2d_2">
      <path d="M 217.812036 376.5 
L 217.812036 7.2 
" clip-path="url(#pf59a80521a)" style="fill: none; stroke: #000000; stroke-opacity: 0.08; stroke-width: 0.5; stroke-linecap: round"/>
     </g>
     <g id="text_2">
      <!-- 0.05 -->
      <g transform="translate(206.679223 393.598437) scale(0.1 -0.1)">
       <defs>
        <path id="DejaVuSans-35" d="M 691 4666 
L 3169 4666 
L 3169 4134 
L 1269 4134 
L 1269 2991 
Q 1406 3038 1543 3061 
Q 1681 3084 1819 3084 
Q 2600 3084 3056 2656 
Q 3513 2228 3513 1497 
Q 3513 744 3044 326 
Q 2575 -91 1722 -91 
Q 1428 -91 1123 -41 
Q 819 9 494 109 
L 494 744 
Q 775 591 1075 516 
Q 1375 441 1709 441 
Q 2250 441 2565 725 
Q 2881 1009 2881 1497 
Q 2881 1984 2565 2268 
Q 2250 2553 1709 2553 
Q 1456 2553 1204 2497 
Q 953 2441 691 2322 
L 691 4666 
z
" transform="scale(0.015625)"/>
       </defs>
       <use xlink:href="#DejaVuSans-30"/>
       <use xlink:href="#DejaVuSans-2e" transform="translate(63.623047 0)"/>
       <use xlink:href="#DejaVuSans-30" transform="translate(95.410156 0)"/>
       <use xlink:href="#DejaVuSans-35" transform="translate(159.033203 0)"/>
      </g>
     </g>
    </g>
    <g id="xtick_3">
     <g id="line2d_3">
      <path d="M 309.648447 376.5 
L 309.648447 7.2 
" clip-path="url(#pf59a80521a)" style="fill: none; stroke: #000000; stroke-opacity: 0.08; stroke-width: 0.5; stroke-linecap: round"/>
     </g>
     <g id="text_3">
      <!-- 0.10 -->
      <g transform="translate(298.515634 393.598437) scale(0.1 -0.1)">
       <defs>
        <path id="DejaVuSans-31" d="M 794 531 
L 1825 531 
L 1825 4091 
L 703 3866 
L 703 4441 
L 1819 4666 
L 2450 4666 
L 2450 531 
L 3481 531 
L 3481 0 
L 794 0 
L 794 531 
z
" transform="scale(0.015625)"/>
       </defs>
       <use xlink:href="#DejaVuSans-30"/>
       <use xlink:href="#DejaVuSans-2e" transform="translate(63.623047 0)"/>
       <use xlink:href="#DejaVuSans-31" transform="translate(95.410156 0)"/>
       <use xlink:href="#DejaVuSans-30" transform="translate(159.033203 0)"/>
      </g>
     </g>
    </g>
    <g id="xtick_4">
     <g id="line2d_4">
      <path d="M 401.484858 376.5 
L 401.484858 7.2 
" clip-path="url(#pf59a80521a)" style="fill: none; stroke: #000000; stroke-opacity: 0.08; stroke-width: 0.5; stroke-linecap: round"/>
     </g>
     <g id="text_4">
      <!-- 0.15 -->
      <g transform="translate(390.352045 393.598437) scale(0.1 -0.1)">
       <use xlink:href="#DejaVuSans-30"/>
       <use xlink:href="#DejaVuSans-2e" transform="translate(63.623047 0)"/>
       <use xlink:href="#DejaVuSans-31" transform="translate(95.410156 0)"/>
       <use xlink:href="#DejaVuSans-35" transform="translate(159.033203 0)"/>
      </g>
     </g>
    </g>
    <g id="xtick_5">
     <g id="line2d_5">
      <path d="M 493.321269 376.5 
L 493.321269 7.2 
" clip-path="url(#pf59a80521a)" style="fill: none; stroke: #000000; stroke-opacity: 0.08; stroke-width: 0.5; stroke-linecap: round"/>
     </g>
     <g id="text_5">
      <!-- 0.20 -->
      <g transform="translate(482.188456 393.598437) scale(0.1 -0.1)">
       <defs>
        <path id="DejaVuSans-32" d="M 1228 531 
L 3431 531 
L 3431 0 
L 469 0 
L 469 531 
Q 828 903 1448 1529 
Q 2069 2156 2228 2338 
Q 2531 2678 2651 2914 
Q 2772 3150 2772 3378 
Q 2772 3750 2511 3984 
Q 2250 4219 1831 4219 
Q 1534 4219 1204 4116 
Q 875 4013 500 3803 
L 500 4441 
Q 881 4594 1212 4672 
Q 1544 4750 1819 4750 
Q 2544 4750 2975 4387 
Q 3406 4025 3406 3419 
Q 3406 3131 3298 2873 
Q 3191 2616 2906 2266 
Q 2828 2175 2409 1742 
Q 1991 1309 1228 531 
z
" transform="scale(0.015625)"/>
       </defs>
       <use xlink:href="#DejaVuSans-30"/>
       <use xlink:href="#DejaVuSans-2e" transform="translate(63.623047 0)"/>
       <use xlink:href="#DejaVuSans-32" transform="translate(95.410156 0)"/>
       <use xlink:href="#DejaVuSans-30" transform="translate(159.033203 0)"/>
      </g>
     </g>
    </g>
    <g id="xtick_6">
     <g id="line2d_6">
      <path d="M 585.157679 376.5 
L 585.157679 7.2 
" clip-path="url(#pf59a80521a)" style="fill: none; stroke: #000000; stroke-opacity: 0.08; stroke-width: 0.5; stroke-linecap: round"/>
     </g>
     <g id="text_6">
      <!-- 0.25 -->
      <g transform="translate(574.024867 393.598437) scale(0.1 -0.1)">
       <use xlink:href="#DejaVuSans-30"/>
       <use xlink:href="#DejaVuSans-2e" transform="translate(63.623047 0)"/>
       <use xlink:href="#DejaVuSans-32" transform="translate(95.410156 0)"/>
       <use xlink:href="#DejaVuSans-35" transform="translate(159.033203 0)"/>
      </g>
     </g>
    </g>
    <g id="xtick_7">
     <g id="line2d_7">
      <path d="M 676.99409 376.5 
L 676.99409 7.2 
" clip-path="url(#pf59a80521a)" style="fill: none; stroke: #000000; stroke-opacity: 0.08; stroke-width: 0.5; stroke-linecap: round"/>
     </g>
     <g id="text_7">
      <!-- 0.30 -->
      <g transform="translate(665.861278 393.598437) scale(0.1 -0.1)">
       <defs>
        <path id="DejaVuSans-33" d="M 2597 2516 
Q 3050 2419 3304 2112 
Q 3559 1806 3559 1356 
Q 3559 666 3084 287 
Q 2609 -91 1734 -91 
Q 1441 -91 1130 -33 
Q 819 25 488 141 
L 488 750 
Q 750 597 1062 519 
Q 1375 441 1716 441 
Q 2309 441 2620 675 
Q 2931 909 2931 1356 
Q 2931 1769 2642 2001 
Q 2353 2234 1838 2234 
L 1294 2234 
L 1294 2753 
L 1863 2753 
Q 2328 2753 2575 2939 
Q 2822 3125 2822 3475 
Q 2822 3834 2567 4026 
Q 2313 4219 1838 4219 
Q 1578 4219 1281 4162 
Q 984 4106 628 3988 
L 628 4550 
Q 988 4650 1302 4700 
Q 1616 4750 1894 4750 
Q 2613 4750 3031 4423 
Q 3450 4097 3450 3541 
Q 3450 3153 3228 2886 
Q 3006 2619 2597 2516 
z
" transform="scale(0.015625)"/>
       </defs>
       <use xlink:href="#DejaVuSans-30"/>
       <use xlink:href="#DejaVuSans-2e" transform="translate(63.623047 0)"/>
       <use xlink:href="#DejaVuSans-33" transform="translate(95.410156 0)"/>
       <use xlink:href="#DejaVuSans-30" transform="translate(159.033203 0)"/>
      </g>
     </g>
    </g>
    <g id="text_8">
     <!-- Mean |SHAP value| -->
     <g transform="translate(359.410999 414.084531) scale(0.11 -0.11)">
      <defs>
       <path id="DejaVuSans-4d" d="M 628 4666 
L 1569 4666 
L 2759 1491 
L 3956 4666 
L 4897 4666 
L 4897 0 
L 4281 0 
L 4281 4097 
L 3078 897 
L 2444 897 
L 1241 4097 
L 1241 0 
L 628 0 
L 628 4666 
z
" transform="scale(0.015625)"/>
       <path id="DejaVuSans-65" d="M 3597 1894 
L 3597 1613 
L 953 1613 
Q 991 1019 1311 708 
Q 1631 397 2203 397 
Q 2534 397 2845 478 
Q 3156 559 3463 722 
L 3463 178 
Q 3153 47 2828 -22 
Q 2503 -91 2169 -91 
Q 1331 -91 842 396 
Q 353 884 353 1716 
Q 353 2575 817 3079 
Q 1281 3584 2069 3584 
Q 2775 3584 3186 3129 
Q 3597 2675 3597 1894 
z
M 3022 2063 
Q 3016 2534 2758 2815 
Q 2500 3097 2075 3097 
Q 1594 3097 1305 2825 
Q 1016 2553 972 2059 
L 3022 2063 
z
" transform="scale(0.015625)"/>
       <path id="DejaVuSans-61" d="M 2194 1759 
Q 1497 1759 1228 1600 
Q 959 1441 959 1056 
Q 959 750 1161 570 
Q 1363 391 1709 391 
Q 2188 391 2477 730 
Q 2766 1069 2766 1631 
L 2766 1759 
L 2194 1759 
z
M 3341 1997 
L 3341 0 
L 2766 0 
L 2766 531 
Q 2569 213 2275 61 
Q 1981 -91 1556 -91 
Q 1019 -91 701 211 
Q 384 513 384 1019 
Q 384 1609 779 1909 
Q 1175 2209 1959 2209 
L 2766 2209 
L 2766 2266 
Q 2766 2663 2505 2880 
Q 2244 3097 1772 3097 
Q 1472 3097 1187 3025 
Q 903 2953 641 2809 
L 641 3341 
Q 956 3463 1253 3523 
Q 1550 3584 1831 3584 
Q 2591 3584 2966 3190 
Q 3341 2797 3341 1997 
z
" transform="scale(0.015625)"/>
       <path id="DejaVuSans-6e" d="M 3513 2113 
L 3513 0 
L 2938 0 
L 2938 2094 
Q 2938 2591 2744 2837 
Q 2550 3084 2163 3084 
Q 1697 3084 1428 2787 
Q 1159 2491 1159 1978 
L 1159 0 
L 581 0 
L 581 3500 
L 1159 3500 
L 1159 2956 
Q 1366 3272 1645 3428 
Q 1925 3584 2291 3584 
Q 2894 3584 3203 3211 
Q 3513 2838 3513 2113 
z
" transform="scale(0.015625)"/>
       <path id="DejaVuSans-20" transform="scale(0.015625)"/>
       <path id="DejaVuSans-7c" d="M 1344 4891 
L 1344 -1509 
L 813 -1509 
L 813 4891 
L 1344 4891 
z
" transform="scale(0.015625)"/>
       <path id="DejaVuSans-53" d="M 3425 4513 
L 3425 3897 
Q 3066 4069 2747 4153 
Q 2428 4238 2131 4238 
Q 1616 4238 1336 4038 
Q 1056 3838 1056 3469 
Q 1056 3159 1242 3001 
Q 1428 2844 1947 2747 
L 2328 2669 
Q 3034 2534 3370 2195 
Q 3706 1856 3706 1288 
Q 3706 609 3251 259 
Q 2797 -91 1919 -91 
Q 1588 -91 1214 -16 
Q 841 59 441 206 
L 441 856 
Q 825 641 1194 531 
Q 1563 422 1919 422 
Q 2459 422 2753 634 
Q 3047 847 3047 1241 
Q 3047 1584 2836 1778 
Q 2625 1972 2144 2069 
L 1759 2144 
Q 1053 2284 737 2584 
Q 422 2884 422 3419 
Q 422 4038 858 4394 
Q 1294 4750 2059 4750 
Q 2388 4750 2728 4690 
Q 3069 4631 3425 4513 
z
" transform="scale(0.015625)"/>
       <path id="DejaVuSans-48" d="M 628 4666 
L 1259 4666 
L 1259 2753 
L 3553 2753 
L 3553 4666 
L 4184 4666 
L 4184 0 
L 3553 0 
L 3553 2222 
L 1259 2222 
L 1259 0 
L 628 0 
L 628 4666 
z
" transform="scale(0.015625)"/>
       <path id="DejaVuSans-41" d="M 2188 4044 
L 1331 1722 
L 3047 1722 
L 2188 4044 
z
M 1831 4666 
L 2547 4666 
L 4325 0 
L 3669 0 
L 3244 1197 
L 1141 1197 
L 716 0 
L 50 0 
L 1831 4666 
z
" transform="scale(0.015625)"/>
       <path id="DejaVuSans-50" d="M 1259 4147 
L 1259 2394 
L 2053 2394 
Q 2494 2394 2734 2622 
Q 2975 2850 2975 3272 
Q 2975 3691 2734 3919 
Q 2494 4147 2053 4147 
L 1259 4147 
z
M 628 4666 
L 2053 4666 
Q 2838 4666 3239 4311 
Q 3641 3956 3641 3272 
Q 3641 2581 3239 2228 
Q 2838 1875 2053 1875 
L 1259 1875 
L 1259 0 
L 628 0 
L 628 4666 
z
" transform="scale(0.015625)"/>
       <path id="DejaVuSans-76" d="M 191 3500 
L 800 3500 
L 1894 563 
L 2988 3500 
L 3597 3500 
L 2284 0 
L 1503 0 
L 191 3500 
z
" transform="scale(0.015625)"/>
       <path id="DejaVuSans-6c" d="M 603 4863 
L 1178 4863 
L 1178 0 
L 603 0 
L 603 4863 
z
" transform="scale(0.015625)"/>
       <path id="DejaVuSans-75" d="M 544 1381 
L 544 3500 
L 1119 3500 
L 1119 1403 
Q 1119 906 1312 657 
Q 1506 409 1894 409 
Q 2359 409 2629 706 
Q 2900 1003 2900 1516 
L 2900 3500 
L 3475 3500 
L 3475 0 
L 2900 0 
L 2900 538 
Q 2691 219 2414 64 
Q 2138 -91 1772 -91 
Q 1169 -91 856 284 
Q 544 659 544 1381 
z
M 1991 3584 
L 1991 3584 
z
" transform="scale(0.015625)"/>
      </defs>
      <use xlink:href="#DejaVuSans-4d"/>
      <use xlink:href="#DejaVuSans-65" transform="translate(86.279297 0)"/>
      <use xlink:href="#DejaVuSans-61" transform="translate(147.802734 0)"/>
      <use xlink:href="#DejaVuSans-6e" transform="translate(209.082031 0)"/>
      <use xlink:href="#DejaVuSans-20" transform="translate(272.460938 0)"/>
      <use xlink:href="#DejaVuSans-7c" transform="translate(304.248047 0)"/>
      <use xlink:href="#DejaVuSans-53" transform="translate(337.939453 0)"/>
      <use xlink:href="#DejaVuSans-48" transform="translate(401.416016 0)"/>
      <use xlink:href="#DejaVuSans-41" transform="translate(476.611328 0)"/>
      <use xlink:href="#DejaVuSans-50" transform="translate(545.019531 0)"/>
      <use xlink:href="#DejaVuSans-20" transform="translate(605.322266 0)"/>
      <use xlink:href="#DejaVuSans-76" transform="translate(637.109375 0)"/>
      <use xlink:href="#DejaVuSans-61" transform="translate(696.289062 0)"/>
      <use xlink:href="#DejaVuSans-6c" transform="translate(757.568359 0)"/>
      <use xlink:href="#DejaVuSans-75" transform="translate(785.351562 0)"/>
      <use xlink:href="#DejaVuSans-65" transform="translate(848.730469 0)"/>
      <use xlink:href="#DejaVuSans-7c" transform="translate(910.253906 0)"/>
     </g>
    </g>
   </g>
   <g id="matplotlib.axis_2">
    <g id="ytick_1">
     <g id="line2d_8">
      <path d="M 125.975625 352.931267 
L 696.681216 352.931267 
" clip-path="url(#pf59a80521a)" style="fill: none; stroke: #cccccc; stroke-linecap: round"/>
     </g>
     <g id="text_9">
      <!-- PaCO2_Freq_6h -->
      <g transform="translate(39.436563 356.730486) scale(0.1 -0.1)">
       <defs>
        <path id="DejaVuSans-43" d="M 4122 4306 
L 4122 3641 
Q 3803 3938 3442 4084 
Q 3081 4231 2675 4231 
Q 1875 4231 1450 3742 
Q 1025 3253 1025 2328 
Q 1025 1406 1450 917 
Q 1875 428 2675 428 
Q 3081 428 3442 575 
Q 3803 722 4122 1019 
L 4122 359 
Q 3791 134 3420 21 
Q 3050 -91 2638 -91 
Q 1578 -91 968 557 
Q 359 1206 359 2328 
Q 359 3453 968 4101 
Q 1578 4750 2638 4750 
Q 3056 4750 3426 4639 
Q 3797 4528 4122 4306 
z
" transform="scale(0.015625)"/>
        <path id="DejaVuSans-4f" d="M 2522 4238 
Q 1834 4238 1429 3725 
Q 1025 3213 1025 2328 
Q 1025 1447 1429 934 
Q 1834 422 2522 422 
Q 3209 422 3611 934 
Q 4013 1447 4013 2328 
Q 4013 3213 3611 3725 
Q 3209 4238 2522 4238 
z
M 2522 4750 
Q 3503 4750 4090 4092 
Q 4678 3434 4678 2328 
Q 4678 1225 4090 567 
Q 3503 -91 2522 -91 
Q 1538 -91 948 565 
Q 359 1222 359 2328 
Q 359 3434 948 4092 
Q 1538 4750 2522 4750 
z
" transform="scale(0.015625)"/>
        <path id="DejaVuSans-5f" d="M 3263 -1063 
L 3263 -1509 
L -63 -1509 
L -63 -1063 
L 3263 -1063 
z
" transform="scale(0.015625)"/>
        <path id="DejaVuSans-46" d="M 628 4666 
L 3309 4666 
L 3309 4134 
L 1259 4134 
L 1259 2759 
L 3109 2759 
L 3109 2228 
L 1259 2228 
L 1259 0 
L 628 0 
L 628 4666 
z
" transform="scale(0.015625)"/>
        <path id="DejaVuSans-72" d="M 2631 2963 
Q 2534 3019 2420 3045 
Q 2306 3072 2169 3072 
Q 1681 3072 1420 2755 
Q 1159 2438 1159 1844 
L 1159 0 
L 581 0 
L 581 3500 
L 1159 3500 
L 1159 2956 
Q 1341 3275 1631 3429 
Q 1922 3584 2338 3584 
Q 2397 3584 2469 3576 
Q 2541 3569 2628 3553 
L 2631 2963 
z
" transform="scale(0.015625)"/>
        <path id="DejaVuSans-71" d="M 947 1747 
Q 947 1113 1208 752 
Q 1469 391 1925 391 
Q 2381 391 2643 752 
Q 2906 1113 2906 1747 
Q 2906 2381 2643 2742 
Q 2381 3103 1925 3103 
Q 1469 3103 1208 2742 
Q 947 2381 947 1747 
z
M 2906 525 
Q 2725 213 2448 61 
Q 2172 -91 1784 -91 
Q 1150 -91 751 415 
Q 353 922 353 1747 
Q 353 2572 751 3078 
Q 1150 3584 1784 3584 
Q 2172 3584 2448 3432 
Q 2725 3281 2906 2969 
L 2906 3500 
L 3481 3500 
L 3481 -1331 
L 2906 -1331 
L 2906 525 
z
" transform="scale(0.015625)"/>
        <path id="DejaVuSans-36" d="M 2113 2584 
Q 1688 2584 1439 2293 
Q 1191 2003 1191 1497 
Q 1191 994 1439 701 
Q 1688 409 2113 409 
Q 2538 409 2786 701 
Q 3034 994 3034 1497 
Q 3034 2003 2786 2293 
Q 2538 2584 2113 2584 
z
M 3366 4563 
L 3366 3988 
Q 3128 4100 2886 4159 
Q 2644 4219 2406 4219 
Q 1781 4219 1451 3797 
Q 1122 3375 1075 2522 
Q 1259 2794 1537 2939 
Q 1816 3084 2150 3084 
Q 2853 3084 3261 2657 
Q 3669 2231 3669 1497 
Q 3669 778 3244 343 
Q 2819 -91 2113 -91 
Q 1303 -91 875 529 
Q 447 1150 447 2328 
Q 447 3434 972 4092 
Q 1497 4750 2381 4750 
Q 2619 4750 2861 4703 
Q 3103 4656 3366 4563 
z
" transform="scale(0.015625)"/>
        <path id="DejaVuSans-68" d="M 3513 2113 
L 3513 0 
L 2938 0 
L 2938 2094 
Q 2938 2591 2744 2837 
Q 2550 3084 2163 3084 
Q 1697 3084 1428 2787 
Q 1159 2491 1159 1978 
L 1159 0 
L 581 0 
L 581 4863 
L 1159 4863 
L 1159 2956 
Q 1366 3272 1645 3428 
Q 1925 3584 2291 3584 
Q 2894 3584 3203 3211 
Q 3513 2838 3513 2113 
z
" transform="scale(0.015625)"/>
       </defs>
       <use xlink:href="#DejaVuSans-50"/>
       <use xlink:href="#DejaVuSans-61" transform="translate(55.802734 0)"/>
       <use xlink:href="#DejaVuSans-43" transform="translate(117.082031 0)"/>
       <use xlink:href="#DejaVuSans-4f" transform="translate(186.90625 0)"/>
       <use xlink:href="#DejaVuSans-32" transform="translate(265.617188 0)"/>
       <use xlink:href="#DejaVuSans-5f" transform="translate(329.240234 0)"/>
       <use xlink:href="#DejaVuSans-46" transform="translate(379.240234 0)"/>
       <use xlink:href="#DejaVuSans-72" transform="translate(429.509766 0)"/>
       <use xlink:href="#DejaVuSans-65" transform="translate(468.373047 0)"/>
       <use xlink:href="#DejaVuSans-71" transform="translate(529.896484 0)"/>
       <use xlink:href="#DejaVuSans-5f" transform="translate(593.373047 0)"/>
       <use xlink:href="#DejaVuSans-36" transform="translate(643.373047 0)"/>
       <use xlink:href="#DejaVuSans-68" transform="translate(706.996094 0)"/>
      </g>
     </g>
    </g>
    <g id="ytick_2">
     <g id="line2d_9">
      <path d="M 125.975625 335.975344 
L 696.681216 335.975344 
" clip-path="url(#pf59a80521a)" style="fill: none; stroke: #cccccc; stroke-linecap: round"/>
     </g>
     <g id="text_10">
      <!-- FiO2 -->
      <g transform="translate(94.436563 339.774563) scale(0.1 -0.1)">
       <defs>
        <path id="DejaVuSans-69" d="M 603 3500 
L 1178 3500 
L 1178 0 
L 603 0 
L 603 3500 
z
M 603 4863 
L 1178 4863 
L 1178 4134 
L 603 4134 
L 603 4863 
z
" transform="scale(0.015625)"/>
       </defs>
       <use xlink:href="#DejaVuSans-46"/>
       <use xlink:href="#DejaVuSans-69" transform="translate(50.269531 0)"/>
       <use xlink:href="#DejaVuSans-4f" transform="translate(78.052734 0)"/>
       <use xlink:href="#DejaVuSans-32" transform="translate(156.763672 0)"/>
      </g>
     </g>
    </g>
    <g id="ytick_3">
     <g id="line2d_10">
      <path d="M 125.975625 319.019421 
L 696.681216 319.019421 
" clip-path="url(#pf59a80521a)" style="fill: none; stroke: #cccccc; stroke-linecap: round"/>
     </g>
     <g id="text_11">
      <!-- Alkalinephos -->
      <g transform="translate(53.052188 322.81864) scale(0.1 -0.1)">
       <defs>
        <path id="DejaVuSans-6b" d="M 581 4863 
L 1159 4863 
L 1159 1991 
L 2875 3500 
L 3609 3500 
L 1753 1863 
L 3688 0 
L 2938 0 
L 1159 1709 
L 1159 0 
L 581 0 
L 581 4863 
z
" transform="scale(0.015625)"/>
        <path id="DejaVuSans-70" d="M 1159 525 
L 1159 -1331 
L 581 -1331 
L 581 3500 
L 1159 3500 
L 1159 2969 
Q 1341 3281 1617 3432 
Q 1894 3584 2278 3584 
Q 2916 3584 3314 3078 
Q 3713 2572 3713 1747 
Q 3713 922 3314 415 
Q 2916 -91 2278 -91 
Q 1894 -91 1617 61 
Q 1341 213 1159 525 
z
M 3116 1747 
Q 3116 2381 2855 2742 
Q 2594 3103 2138 3103 
Q 1681 3103 1420 2742 
Q 1159 2381 1159 1747 
Q 1159 1113 1420 752 
Q 1681 391 2138 391 
Q 2594 391 2855 752 
Q 3116 1113 3116 1747 
z
" transform="scale(0.015625)"/>
        <path id="DejaVuSans-6f" d="M 1959 3097 
Q 1497 3097 1228 2736 
Q 959 2375 959 1747 
Q 959 1119 1226 758 
Q 1494 397 1959 397 
Q 2419 397 2687 759 
Q 2956 1122 2956 1747 
Q 2956 2369 2687 2733 
Q 2419 3097 1959 3097 
z
M 1959 3584 
Q 2709 3584 3137 3096 
Q 3566 2609 3566 1747 
Q 3566 888 3137 398 
Q 2709 -91 1959 -91 
Q 1206 -91 779 398 
Q 353 888 353 1747 
Q 353 2609 779 3096 
Q 1206 3584 1959 3584 
z
" transform="scale(0.015625)"/>
        <path id="DejaVuSans-73" d="M 2834 3397 
L 2834 2853 
Q 2591 2978 2328 3040 
Q 2066 3103 1784 3103 
Q 1356 3103 1142 2972 
Q 928 2841 928 2578 
Q 928 2378 1081 2264 
Q 1234 2150 1697 2047 
L 1894 2003 
Q 2506 1872 2764 1633 
Q 3022 1394 3022 966 
Q 3022 478 2636 193 
Q 2250 -91 1575 -91 
Q 1294 -91 989 -36 
Q 684 19 347 128 
L 347 722 
Q 666 556 975 473 
Q 1284 391 1588 391 
Q 1994 391 2212 530 
Q 2431 669 2431 922 
Q 2431 1156 2273 1281 
Q 2116 1406 1581 1522 
L 1381 1569 
Q 847 1681 609 1914 
Q 372 2147 372 2553 
Q 372 3047 722 3315 
Q 1072 3584 1716 3584 
Q 2034 3584 2315 3537 
Q 2597 3491 2834 3397 
z
" transform="scale(0.015625)"/>
       </defs>
       <use xlink:href="#DejaVuSans-41"/>
       <use xlink:href="#DejaVuSans-6c" transform="translate(68.408203 0)"/>
       <use xlink:href="#DejaVuSans-6b" transform="translate(96.191406 0)"/>
       <use xlink:href="#DejaVuSans-61" transform="translate(152.351562 0)"/>
       <use xlink:href="#DejaVuSans-6c" transform="translate(213.630859 0)"/>
       <use xlink:href="#DejaVuSans-69" transform="translate(241.414062 0)"/>
       <use xlink:href="#DejaVuSans-6e" transform="translate(269.197266 0)"/>
       <use xlink:href="#DejaVuSans-65" transform="translate(332.576172 0)"/>
       <use xlink:href="#DejaVuSans-70" transform="translate(394.099609 0)"/>
       <use xlink:href="#DejaVuSans-68" transform="translate(457.576172 0)"/>
       <use xlink:href="#DejaVuSans-6f" transform="translate(520.955078 0)"/>
       <use xlink:href="#DejaVuSans-73" transform="translate(582.136719 0)"/>
      </g>
     </g>
    </g>
    <g id="ytick_4">
     <g id="line2d_11">
      <path d="M 125.975625 302.063499 
L 696.681216 302.063499 
" clip-path="url(#pf59a80521a)" style="fill: none; stroke: #cccccc; stroke-linecap: round"/>
     </g>
     <g id="text_12">
      <!-- Lactate_Freq_6h -->
      <g transform="translate(35.04125 305.862717) scale(0.1 -0.1)">
       <defs>
        <path id="DejaVuSans-4c" d="M 628 4666 
L 1259 4666 
L 1259 531 
L 3531 531 
L 3531 0 
L 628 0 
L 628 4666 
z
" transform="scale(0.015625)"/>
        <path id="DejaVuSans-63" d="M 3122 3366 
L 3122 2828 
Q 2878 2963 2633 3030 
Q 2388 3097 2138 3097 
Q 1578 3097 1268 2742 
Q 959 2388 959 1747 
Q 959 1106 1268 751 
Q 1578 397 2138 397 
Q 2388 397 2633 464 
Q 2878 531 3122 666 
L 3122 134 
Q 2881 22 2623 -34 
Q 2366 -91 2075 -91 
Q 1284 -91 818 406 
Q 353 903 353 1747 
Q 353 2603 823 3093 
Q 1294 3584 2113 3584 
Q 2378 3584 2631 3529 
Q 2884 3475 3122 3366 
z
" transform="scale(0.015625)"/>
        <path id="DejaVuSans-74" d="M 1172 4494 
L 1172 3500 
L 2356 3500 
L 2356 3053 
L 1172 3053 
L 1172 1153 
Q 1172 725 1289 603 
Q 1406 481 1766 481 
L 2356 481 
L 2356 0 
L 1766 0 
Q 1100 0 847 248 
Q 594 497 594 1153 
L 594 3053 
L 172 3053 
L 172 3500 
L 594 3500 
L 594 4494 
L 1172 4494 
z
" transform="scale(0.015625)"/>
       </defs>
       <use xlink:href="#DejaVuSans-4c"/>
       <use xlink:href="#DejaVuSans-61" transform="translate(55.712891 0)"/>
       <use xlink:href="#DejaVuSans-63" transform="translate(116.992188 0)"/>
       <use xlink:href="#DejaVuSans-74" transform="translate(171.972656 0)"/>
       <use xlink:href="#DejaVuSans-61" transform="translate(211.181641 0)"/>
       <use xlink:href="#DejaVuSans-74" transform="translate(272.460938 0)"/>
       <use xlink:href="#DejaVuSans-65" transform="translate(311.669922 0)"/>
       <use xlink:href="#DejaVuSans-5f" transform="translate(373.193359 0)"/>
       <use xlink:href="#DejaVuSans-46" transform="translate(423.193359 0)"/>
       <use xlink:href="#DejaVuSans-72" transform="translate(473.462891 0)"/>
       <use xlink:href="#DejaVuSans-65" transform="translate(512.326172 0)"/>
       <use xlink:href="#DejaVuSans-71" transform="translate(573.849609 0)"/>
       <use xlink:href="#DejaVuSans-5f" transform="translate(637.326172 0)"/>
       <use xlink:href="#DejaVuSans-36" transform="translate(687.326172 0)"/>
       <use xlink:href="#DejaVuSans-68" transform="translate(750.949219 0)"/>
      </g>
     </g>
    </g>
    <g id="ytick_5">
     <g id="line2d_12">
      <path d="M 125.975625 285.107576 
L 696.681216 285.107576 
" clip-path="url(#pf59a80521a)" style="fill: none; stroke: #cccccc; stroke-linecap: round"/>
     </g>
     <g id="text_13">
      <!-- Calcium -->
      <g transform="translate(76.231875 288.906795) scale(0.1 -0.1)">
       <defs>
        <path id="DejaVuSans-6d" d="M 3328 2828 
Q 3544 3216 3844 3400 
Q 4144 3584 4550 3584 
Q 5097 3584 5394 3201 
Q 5691 2819 5691 2113 
L 5691 0 
L 5113 0 
L 5113 2094 
Q 5113 2597 4934 2840 
Q 4756 3084 4391 3084 
Q 3944 3084 3684 2787 
Q 3425 2491 3425 1978 
L 3425 0 
L 2847 0 
L 2847 2094 
Q 2847 2600 2669 2842 
Q 2491 3084 2119 3084 
Q 1678 3084 1418 2786 
Q 1159 2488 1159 1978 
L 1159 0 
L 581 0 
L 581 3500 
L 1159 3500 
L 1159 2956 
Q 1356 3278 1631 3431 
Q 1906 3584 2284 3584 
Q 2666 3584 2933 3390 
Q 3200 3197 3328 2828 
z
" transform="scale(0.015625)"/>
       </defs>
       <use xlink:href="#DejaVuSans-43"/>
       <use xlink:href="#DejaVuSans-61" transform="translate(69.824219 0)"/>
       <use xlink:href="#DejaVuSans-6c" transform="translate(131.103516 0)"/>
       <use xlink:href="#DejaVuSans-63" transform="translate(158.886719 0)"/>
       <use xlink:href="#DejaVuSans-69" transform="translate(213.867188 0)"/>
       <use xlink:href="#DejaVuSans-75" transform="translate(241.650391 0)"/>
       <use xlink:href="#DejaVuSans-6d" transform="translate(305.029297 0)"/>
      </g>
     </g>
    </g>
    <g id="ytick_6">
     <g id="line2d_13">
      <path d="M 125.975625 268.151653 
L 696.681216 268.151653 
" clip-path="url(#pf59a80521a)" style="fill: none; stroke: #cccccc; stroke-linecap: round"/>
     </g>
     <g id="text_14">
      <!-- MAP_Min_6h -->
      <g transform="translate(54.533438 271.950872) scale(0.1 -0.1)">
       <use xlink:href="#DejaVuSans-4d"/>
       <use xlink:href="#DejaVuSans-41" transform="translate(86.279297 0)"/>
       <use xlink:href="#DejaVuSans-50" transform="translate(154.6875 0)"/>
       <use xlink:href="#DejaVuSans-5f" transform="translate(214.990234 0)"/>
       <use xlink:href="#DejaVuSans-4d" transform="translate(264.990234 0)"/>
       <use xlink:href="#DejaVuSans-69" transform="translate(351.269531 0)"/>
       <use xlink:href="#DejaVuSans-6e" transform="translate(379.052734 0)"/>
       <use xlink:href="#DejaVuSans-5f" transform="translate(442.431641 0)"/>
       <use xlink:href="#DejaVuSans-36" transform="translate(492.431641 0)"/>
       <use xlink:href="#DejaVuSans-68" transform="translate(556.054688 0)"/>
      </g>
     </g>
    </g>
    <g id="ytick_7">
     <g id="line2d_14">
      <path d="M 125.975625 251.19573 
L 696.681216 251.19573 
" clip-path="url(#pf59a80521a)" style="fill: none; stroke: #cccccc; stroke-linecap: round"/>
     </g>
     <g id="text_15">
      <!-- Temp_Max_2h -->
      <g transform="translate(46.450625 254.994949) scale(0.1 -0.1)">
       <defs>
        <path id="DejaVuSans-54" d="M -19 4666 
L 3928 4666 
L 3928 4134 
L 2272 4134 
L 2272 0 
L 1638 0 
L 1638 4134 
L -19 4134 
L -19 4666 
z
" transform="scale(0.015625)"/>
        <path id="DejaVuSans-78" d="M 3513 3500 
L 2247 1797 
L 3578 0 
L 2900 0 
L 1881 1375 
L 863 0 
L 184 0 
L 1544 1831 
L 300 3500 
L 978 3500 
L 1906 2253 
L 2834 3500 
L 3513 3500 
z
" transform="scale(0.015625)"/>
       </defs>
       <use xlink:href="#DejaVuSans-54"/>
       <use xlink:href="#DejaVuSans-65" transform="translate(44.083984 0)"/>
       <use xlink:href="#DejaVuSans-6d" transform="translate(105.607422 0)"/>
       <use xlink:href="#DejaVuSans-70" transform="translate(203.019531 0)"/>
       <use xlink:href="#DejaVuSans-5f" transform="translate(266.496094 0)"/>
       <use xlink:href="#DejaVuSans-4d" transform="translate(316.496094 0)"/>
       <use xlink:href="#DejaVuSans-61" transform="translate(402.775391 0)"/>
       <use xlink:href="#DejaVuSans-78" transform="translate(464.054688 0)"/>
       <use xlink:href="#DejaVuSans-5f" transform="translate(523.234375 0)"/>
       <use xlink:href="#DejaVuSans-32" transform="translate(573.234375 0)"/>
       <use xlink:href="#DejaVuSans-68" transform="translate(636.857422 0)"/>
      </g>
     </g>
    </g>
    <g id="ytick_8">
     <g id="line2d_15">
      <path d="M 125.975625 234.239807 
L 696.681216 234.239807 
" clip-path="url(#pf59a80521a)" style="fill: none; stroke: #cccccc; stroke-linecap: round"/>
     </g>
     <g id="text_16">
      <!-- Lactate_Mean_12h -->
      <g transform="translate(22.845938 238.039026) scale(0.1 -0.1)">
       <use xlink:href="#DejaVuSans-4c"/>
       <use xlink:href="#DejaVuSans-61" transform="translate(55.712891 0)"/>
       <use xlink:href="#DejaVuSans-63" transform="translate(116.992188 0)"/>
       <use xlink:href="#DejaVuSans-74" transform="translate(171.972656 0)"/>
       <use xlink:href="#DejaVuSans-61" transform="translate(211.181641 0)"/>
       <use xlink:href="#DejaVuSans-74" transform="translate(272.460938 0)"/>
       <use xlink:href="#DejaVuSans-65" transform="translate(311.669922 0)"/>
       <use xlink:href="#DejaVuSans-5f" transform="translate(373.193359 0)"/>
       <use xlink:href="#DejaVuSans-4d" transform="translate(423.193359 0)"/>
       <use xlink:href="#DejaVuSans-65" transform="translate(509.472656 0)"/>
       <use xlink:href="#DejaVuSans-61" transform="translate(570.996094 0)"/>
       <use xlink:href="#DejaVuSans-6e" transform="translate(632.275391 0)"/>
       <use xlink:href="#DejaVuSans-5f" transform="translate(695.654297 0)"/>
       <use xlink:href="#DejaVuSans-31" transform="translate(745.654297 0)"/>
       <use xlink:href="#DejaVuSans-32" transform="translate(809.277344 0)"/>
       <use xlink:href="#DejaVuSans-68" transform="translate(872.900391 0)"/>
      </g>
     </g>
    </g>
    <g id="ytick_9">
     <g id="line2d_16">
      <path d="M 125.975625 217.283884 
L 696.681216 217.283884 
" clip-path="url(#pf59a80521a)" style="fill: none; stroke: #cccccc; stroke-linecap: round"/>
     </g>
     <g id="text_17">
      <!-- Temp -->
      <g transform="translate(89.825625 221.083103) scale(0.1 -0.1)">
       <use xlink:href="#DejaVuSans-54"/>
       <use xlink:href="#DejaVuSans-65" transform="translate(44.083984 0)"/>
       <use xlink:href="#DejaVuSans-6d" transform="translate(105.607422 0)"/>
       <use xlink:href="#DejaVuSans-70" transform="translate(203.019531 0)"/>
      </g>
     </g>
    </g>
    <g id="ytick_10">
     <g id="line2d_17">
      <path d="M 125.975625 200.327961 
L 696.681216 200.327961 
" clip-path="url(#pf59a80521a)" style="fill: none; stroke: #cccccc; stroke-linecap: round"/>
     </g>
     <g id="text_18">
      <!-- Temp_Max_12h -->
      <g transform="translate(40.088125 204.12718) scale(0.1 -0.1)">
       <use xlink:href="#DejaVuSans-54"/>
       <use xlink:href="#DejaVuSans-65" transform="translate(44.083984 0)"/>
       <use xlink:href="#DejaVuSans-6d" transform="translate(105.607422 0)"/>
       <use xlink:href="#DejaVuSans-70" transform="translate(203.019531 0)"/>
       <use xlink:href="#DejaVuSans-5f" transform="translate(266.496094 0)"/>
       <use xlink:href="#DejaVuSans-4d" transform="translate(316.496094 0)"/>
       <use xlink:href="#DejaVuSans-61" transform="translate(402.775391 0)"/>
       <use xlink:href="#DejaVuSans-78" transform="translate(464.054688 0)"/>
       <use xlink:href="#DejaVuSans-5f" transform="translate(523.234375 0)"/>
       <use xlink:href="#DejaVuSans-31" transform="translate(573.234375 0)"/>
       <use xlink:href="#DejaVuSans-32" transform="translate(636.857422 0)"/>
       <use xlink:href="#DejaVuSans-68" transform="translate(700.480469 0)"/>
      </g>
     </g>
    </g>
    <g id="ytick_11">
     <g id="line2d_18">
      <path d="M 125.975625 183.372039 
L 696.681216 183.372039 
" clip-path="url(#pf59a80521a)" style="fill: none; stroke: #cccccc; stroke-linecap: round"/>
     </g>
     <g id="text_19">
      <!-- Temp_Max_6h -->
      <g transform="translate(46.450625 187.171257) scale(0.1 -0.1)">
       <use xlink:href="#DejaVuSans-54"/>
       <use xlink:href="#DejaVuSans-65" transform="translate(44.083984 0)"/>
       <use xlink:href="#DejaVuSans-6d" transform="translate(105.607422 0)"/>
       <use xlink:href="#DejaVuSans-70" transform="translate(203.019531 0)"/>
       <use xlink:href="#DejaVuSans-5f" transform="translate(266.496094 0)"/>
       <use xlink:href="#DejaVuSans-4d" transform="translate(316.496094 0)"/>
       <use xlink:href="#DejaVuSans-61" transform="translate(402.775391 0)"/>
       <use xlink:href="#DejaVuSans-78" transform="translate(464.054688 0)"/>
       <use xlink:href="#DejaVuSans-5f" transform="translate(523.234375 0)"/>
       <use xlink:href="#DejaVuSans-36" transform="translate(573.234375 0)"/>
       <use xlink:href="#DejaVuSans-68" transform="translate(636.857422 0)"/>
      </g>
     </g>
    </g>
    <g id="ytick_12">
     <g id="line2d_19">
      <path d="M 125.975625 166.416116 
L 696.681216 166.416116 
" clip-path="url(#pf59a80521a)" style="fill: none; stroke: #cccccc; stroke-linecap: round"/>
     </g>
     <g id="text_20">
      <!-- Creatinine -->
      <g transform="translate(65.020938 170.215334) scale(0.1 -0.1)">
       <use xlink:href="#DejaVuSans-43"/>
       <use xlink:href="#DejaVuSans-72" transform="translate(69.824219 0)"/>
       <use xlink:href="#DejaVuSans-65" transform="translate(108.6875 0)"/>
       <use xlink:href="#DejaVuSans-61" transform="translate(170.210938 0)"/>
       <use xlink:href="#DejaVuSans-74" transform="translate(231.490234 0)"/>
       <use xlink:href="#DejaVuSans-69" transform="translate(270.699219 0)"/>
       <use xlink:href="#DejaVuSans-6e" transform="translate(298.482422 0)"/>
       <use xlink:href="#DejaVuSans-69" transform="translate(361.861328 0)"/>
       <use xlink:href="#DejaVuSans-6e" transform="translate(389.644531 0)"/>
       <use xlink:href="#DejaVuSans-65" transform="translate(453.023438 0)"/>
      </g>
     </g>
    </g>
    <g id="ytick_13">
     <g id="line2d_20">
      <path d="M 125.975625 149.460193 
L 696.681216 149.460193 
" clip-path="url(#pf59a80521a)" style="fill: none; stroke: #cccccc; stroke-linecap: round"/>
     </g>
     <g id="text_21">
      <!-- Resp_Mean_12h -->
      <g transform="translate(35.956875 153.259412) scale(0.1 -0.1)">
       <defs>
        <path id="DejaVuSans-52" d="M 2841 2188 
Q 3044 2119 3236 1894 
Q 3428 1669 3622 1275 
L 4263 0 
L 3584 0 
L 2988 1197 
Q 2756 1666 2539 1819 
Q 2322 1972 1947 1972 
L 1259 1972 
L 1259 0 
L 628 0 
L 628 4666 
L 2053 4666 
Q 2853 4666 3247 4331 
Q 3641 3997 3641 3322 
Q 3641 2881 3436 2590 
Q 3231 2300 2841 2188 
z
M 1259 4147 
L 1259 2491 
L 2053 2491 
Q 2509 2491 2742 2702 
Q 2975 2913 2975 3322 
Q 2975 3731 2742 3939 
Q 2509 4147 2053 4147 
L 1259 4147 
z
" transform="scale(0.015625)"/>
       </defs>
       <use xlink:href="#DejaVuSans-52"/>
       <use xlink:href="#DejaVuSans-65" transform="translate(64.982422 0)"/>
       <use xlink:href="#DejaVuSans-73" transform="translate(126.505859 0)"/>
       <use xlink:href="#DejaVuSans-70" transform="translate(178.605469 0)"/>
       <use xlink:href="#DejaVuSans-5f" transform="translate(242.082031 0)"/>
       <use xlink:href="#DejaVuSans-4d" transform="translate(292.082031 0)"/>
       <use xlink:href="#DejaVuSans-65" transform="translate(378.361328 0)"/>
       <use xlink:href="#DejaVuSans-61" transform="translate(439.884766 0)"/>
       <use xlink:href="#DejaVuSans-6e" transform="translate(501.164062 0)"/>
       <use xlink:href="#DejaVuSans-5f" transform="translate(564.542969 0)"/>
       <use xlink:href="#DejaVuSans-31" transform="translate(614.542969 0)"/>
       <use xlink:href="#DejaVuSans-32" transform="translate(678.166016 0)"/>
       <use xlink:href="#DejaVuSans-68" transform="translate(741.789062 0)"/>
      </g>
     </g>
    </g>
    <g id="ytick_14">
     <g id="line2d_21">
      <path d="M 125.975625 132.50427 
L 696.681216 132.50427 
" clip-path="url(#pf59a80521a)" style="fill: none; stroke: #cccccc; stroke-linecap: round"/>
     </g>
     <g id="text_22">
      <!-- WBC -->
      <g transform="translate(92.919375 136.303489) scale(0.1 -0.1)">
       <defs>
        <path id="DejaVuSans-57" d="M 213 4666 
L 850 4666 
L 1831 722 
L 2809 4666 
L 3519 4666 
L 4500 722 
L 5478 4666 
L 6119 4666 
L 4947 0 
L 4153 0 
L 3169 4050 
L 2175 0 
L 1381 0 
L 213 4666 
z
" transform="scale(0.015625)"/>
        <path id="DejaVuSans-42" d="M 1259 2228 
L 1259 519 
L 2272 519 
Q 2781 519 3026 730 
Q 3272 941 3272 1375 
Q 3272 1813 3026 2020 
Q 2781 2228 2272 2228 
L 1259 2228 
z
M 1259 4147 
L 1259 2741 
L 2194 2741 
Q 2656 2741 2882 2914 
Q 3109 3088 3109 3444 
Q 3109 3797 2882 3972 
Q 2656 4147 2194 4147 
L 1259 4147 
z
M 628 4666 
L 2241 4666 
Q 2963 4666 3353 4366 
Q 3744 4066 3744 3513 
Q 3744 3084 3544 2831 
Q 3344 2578 2956 2516 
Q 3422 2416 3680 2098 
Q 3938 1781 3938 1306 
Q 3938 681 3513 340 
Q 3088 0 2303 0 
L 628 0 
L 628 4666 
z
" transform="scale(0.015625)"/>
       </defs>
       <use xlink:href="#DejaVuSans-57"/>
       <use xlink:href="#DejaVuSans-42" transform="translate(98.876953 0)"/>
       <use xlink:href="#DejaVuSans-43" transform="translate(165.730469 0)"/>
      </g>
     </g>
    </g>
    <g id="ytick_15">
     <g id="line2d_22">
      <path d="M 125.975625 115.548347 
L 696.681216 115.548347 
" clip-path="url(#pf59a80521a)" style="fill: none; stroke: #cccccc; stroke-linecap: round"/>
     </g>
     <g id="text_23">
      <!-- ShockIndex -->
      <g transform="translate(58.849063 119.347566) scale(0.1 -0.1)">
       <defs>
        <path id="DejaVuSans-49" d="M 628 4666 
L 1259 4666 
L 1259 0 
L 628 0 
L 628 4666 
z
" transform="scale(0.015625)"/>
        <path id="DejaVuSans-64" d="M 2906 2969 
L 2906 4863 
L 3481 4863 
L 3481 0 
L 2906 0 
L 2906 525 
Q 2725 213 2448 61 
Q 2172 -91 1784 -91 
Q 1150 -91 751 415 
Q 353 922 353 1747 
Q 353 2572 751 3078 
Q 1150 3584 1784 3584 
Q 2172 3584 2448 3432 
Q 2725 3281 2906 2969 
z
M 947 1747 
Q 947 1113 1208 752 
Q 1469 391 1925 391 
Q 2381 391 2643 752 
Q 2906 1113 2906 1747 
Q 2906 2381 2643 2742 
Q 2381 3103 1925 3103 
Q 1469 3103 1208 2742 
Q 947 2381 947 1747 
z
" transform="scale(0.015625)"/>
       </defs>
       <use xlink:href="#DejaVuSans-53"/>
       <use xlink:href="#DejaVuSans-68" transform="translate(63.476562 0)"/>
       <use xlink:href="#DejaVuSans-6f" transform="translate(126.855469 0)"/>
       <use xlink:href="#DejaVuSans-63" transform="translate(188.037109 0)"/>
       <use xlink:href="#DejaVuSans-6b" transform="translate(243.017578 0)"/>
       <use xlink:href="#DejaVuSans-49" transform="translate(300.927734 0)"/>
       <use xlink:href="#DejaVuSans-6e" transform="translate(330.419922 0)"/>
       <use xlink:href="#DejaVuSans-64" transform="translate(393.798828 0)"/>
       <use xlink:href="#DejaVuSans-65" transform="translate(457.275391 0)"/>
       <use xlink:href="#DejaVuSans-78" transform="translate(517.048828 0)"/>
      </g>
     </g>
    </g>
    <g id="ytick_16">
     <g id="line2d_23">
      <path d="M 125.975625 98.592424 
L 696.681216 98.592424 
" clip-path="url(#pf59a80521a)" style="fill: none; stroke: #cccccc; stroke-linecap: round"/>
     </g>
     <g id="text_24">
      <!-- BUN -->
      <g transform="translate(94.814688 102.391643) scale(0.1 -0.1)">
       <defs>
        <path id="DejaVuSans-55" d="M 556 4666 
L 1191 4666 
L 1191 1831 
Q 1191 1081 1462 751 
Q 1734 422 2344 422 
Q 2950 422 3222 751 
Q 3494 1081 3494 1831 
L 3494 4666 
L 4128 4666 
L 4128 1753 
Q 4128 841 3676 375 
Q 3225 -91 2344 -91 
Q 1459 -91 1007 375 
Q 556 841 556 1753 
L 556 4666 
z
" transform="scale(0.015625)"/>
        <path id="DejaVuSans-4e" d="M 628 4666 
L 1478 4666 
L 3547 763 
L 3547 4666 
L 4159 4666 
L 4159 0 
L 3309 0 
L 1241 3903 
L 1241 0 
L 628 0 
L 628 4666 
z
" transform="scale(0.015625)"/>
       </defs>
       <use xlink:href="#DejaVuSans-42"/>
       <use xlink:href="#DejaVuSans-55" transform="translate(68.603516 0)"/>
       <use xlink:href="#DejaVuSans-4e" transform="translate(141.796875 0)"/>
      </g>
     </g>
    </g>
    <g id="ytick_17">
     <g id="line2d_24">
      <path d="M 125.975625 81.636501 
L 696.681216 81.636501 
" clip-path="url(#pf59a80521a)" style="fill: none; stroke: #cccccc; stroke-linecap: round"/>
     </g>
     <g id="text_25">
      <!-- Unit1 -->
      <g transform="translate(89.758438 85.43572) scale(0.1 -0.1)">
       <use xlink:href="#DejaVuSans-55"/>
       <use xlink:href="#DejaVuSans-6e" transform="translate(73.193359 0)"/>
       <use xlink:href="#DejaVuSans-69" transform="translate(136.572266 0)"/>
       <use xlink:href="#DejaVuSans-74" transform="translate(164.355469 0)"/>
       <use xlink:href="#DejaVuSans-31" transform="translate(203.564453 0)"/>
      </g>
     </g>
    </g>
    <g id="ytick_18">
     <g id="line2d_25">
      <path d="M 125.975625 64.680579 
L 696.681216 64.680579 
" clip-path="url(#pf59a80521a)" style="fill: none; stroke: #cccccc; stroke-linecap: round"/>
     </g>
     <g id="text_26">
      <!-- HospAdmTime -->
      <g transform="translate(44.056875 68.479797) scale(0.1 -0.1)">
       <use xlink:href="#DejaVuSans-48"/>
       <use xlink:href="#DejaVuSans-6f" transform="translate(75.195312 0)"/>
       <use xlink:href="#DejaVuSans-73" transform="translate(136.376953 0)"/>
       <use xlink:href="#DejaVuSans-70" transform="translate(188.476562 0)"/>
       <use xlink:href="#DejaVuSans-41" transform="translate(251.953125 0)"/>
       <use xlink:href="#DejaVuSans-64" transform="translate(318.611328 0)"/>
       <use xlink:href="#DejaVuSans-6d" transform="translate(382.087891 0)"/>
       <use xlink:href="#DejaVuSans-54" transform="translate(479.5 0)"/>
       <use xlink:href="#DejaVuSans-69" transform="translate(537.458984 0)"/>
       <use xlink:href="#DejaVuSans-6d" transform="translate(565.242188 0)"/>
       <use xlink:href="#DejaVuSans-65" transform="translate(662.654297 0)"/>
      </g>
     </g>
    </g>
    <g id="ytick_19">
     <g id="line2d_26">
      <path d="M 125.975625 47.724656 
L 696.681216 47.724656 
" clip-path="url(#pf59a80521a)" style="fill: none; stroke: #cccccc; stroke-linecap: round"/>
     </g>
     <g id="text_27">
      <!-- FiO2_Freq_6h -->
      <g transform="translate(50.3225 51.523874) scale(0.1 -0.1)">
       <use xlink:href="#DejaVuSans-46"/>
       <use xlink:href="#DejaVuSans-69" transform="translate(50.269531 0)"/>
       <use xlink:href="#DejaVuSans-4f" transform="translate(78.052734 0)"/>
       <use xlink:href="#DejaVuSans-32" transform="translate(156.763672 0)"/>
       <use xlink:href="#DejaVuSans-5f" transform="translate(220.386719 0)"/>
       <use xlink:href="#DejaVuSans-46" transform="translate(270.386719 0)"/>
       <use xlink:href="#DejaVuSans-72" transform="translate(320.65625 0)"/>
       <use xlink:href="#DejaVuSans-65" transform="translate(359.519531 0)"/>
       <use xlink:href="#DejaVuSans-71" transform="translate(421.042969 0)"/>
       <use xlink:href="#DejaVuSans-5f" transform="translate(484.519531 0)"/>
       <use xlink:href="#DejaVuSans-36" transform="translate(534.519531 0)"/>
       <use xlink:href="#DejaVuSans-68" transform="translate(598.142578 0)"/>
      </g>
     </g>
    </g>
    <g id="ytick_20">
     <g id="line2d_27">
      <path d="M 125.975625 30.768733 
L 696.681216 30.768733 
" clip-path="url(#pf59a80521a)" style="fill: none; stroke: #cccccc; stroke-linecap: round"/>
     </g>
     <g id="text_28">
      <!-- ICULOS -->
      <g transform="translate(79.794375 34.567952) scale(0.1 -0.1)">
       <use xlink:href="#DejaVuSans-49"/>
       <use xlink:href="#DejaVuSans-43" transform="translate(29.492188 0)"/>
       <use xlink:href="#DejaVuSans-55" transform="translate(99.316406 0)"/>
       <use xlink:href="#DejaVuSans-4c" transform="translate(172.509766 0)"/>
       <use xlink:href="#DejaVuSans-4f" transform="translate(224.597656 0)"/>
       <use xlink:href="#DejaVuSans-53" transform="translate(303.308594 0)"/>
      </g>
     </g>
    </g>
    <g id="text_29">
     <!-- Features -->
     <g transform="translate(15.558281 215.493984) rotate(-90) scale(0.11 -0.11)">
      <use xlink:href="#DejaVuSans-46"/>
      <use xlink:href="#DejaVuSans-65" transform="translate(52.019531 0)"/>
      <use xlink:href="#DejaVuSans-61" transform="translate(113.542969 0)"/>
      <use xlink:href="#DejaVuSans-74" transform="translate(174.822266 0)"/>
      <use xlink:href="#DejaVuSans-75" transform="translate(214.03125 0)"/>
      <use xlink:href="#DejaVuSans-72" transform="translate(277.410156 0)"/>
      <use xlink:href="#DejaVuSans-65" transform="translate(316.273438 0)"/>
      <use xlink:href="#DejaVuSans-73" transform="translate(377.796875 0)"/>
     </g>
    </g>
   </g>
   <g id="patch_3">
    <path d="M 125.975625 359.713636 
L 200.908982 359.713636 
L 200.908982 346.148898 
L 125.975625 346.148898 
z
" clip-path="url(#pf59a80521a)" style="fill: #f1a208; stroke: #333333; stroke-width: 0.6; stroke-linejoin: miter"/>
   </g>
   <g id="patch_4">
    <path d="M 125.975625 342.757713 
L 210.577984 342.757713 
L 210.577984 329.192975 
L 125.975625 329.192975 
z
" clip-path="url(#pf59a80521a)" style="fill: #052f5f; stroke: #333333; stroke-width: 0.6; stroke-linejoin: miter"/>
   </g>
   <g id="patch_5">
    <path d="M 125.975625 325.801791 
L 213.435755 325.801791 
L 213.435755 312.237052 
L 125.975625 312.237052 
z
" clip-path="url(#pf59a80521a)" style="fill: #052f5f; stroke: #333333; stroke-width: 0.6; stroke-linejoin: miter"/>
   </g>
   <g id="patch_6">
    <path d="M 125.975625 308.845868 
L 215.313442 308.845868 
L 215.313442 295.281129 
L 125.975625 295.281129 
z
" clip-path="url(#pf59a80521a)" style="fill: #f1a208; stroke: #333333; stroke-width: 0.6; stroke-linejoin: miter"/>
   </g>
   <g id="patch_7">
    <path d="M 125.975625 291.889945 
L 216.857033 291.889945 
L 216.857033 278.325207 
L 125.975625 278.325207 
z
" clip-path="url(#pf59a80521a)" style="fill: #052f5f; stroke: #333333; stroke-width: 0.6; stroke-linejoin: miter"/>
   </g>
   <g id="patch_8">
    <path d="M 125.975625 274.934022 
L 221.518853 274.934022 
L 221.518853 261.369284 
L 125.975625 261.369284 
z
" clip-path="url(#pf59a80521a)" style="fill: #06a77d; stroke: #333333; stroke-width: 0.6; stroke-linejoin: miter"/>
   </g>
   <g id="patch_9">
    <path d="M 125.975625 257.978099 
L 221.842824 257.978099 
L 221.842824 244.413361 
L 125.975625 244.413361 
z
" clip-path="url(#pf59a80521a)" style="fill: #06a77d; stroke: #333333; stroke-width: 0.6; stroke-linejoin: miter"/>
   </g>
   <g id="patch_10">
    <path d="M 125.975625 241.022176 
L 226.82755 241.022176 
L 226.82755 227.457438 
L 125.975625 227.457438 
z
" clip-path="url(#pf59a80521a)" style="fill: #06a77d; stroke: #333333; stroke-width: 0.6; stroke-linejoin: miter"/>
   </g>
   <g id="patch_11">
    <path d="M 125.975625 224.066253 
L 235.431923 224.066253 
L 235.431923 210.501515 
L 125.975625 210.501515 
z
" clip-path="url(#pf59a80521a)" style="fill: #052f5f; stroke: #333333; stroke-width: 0.6; stroke-linejoin: miter"/>
   </g>
   <g id="patch_12">
    <path d="M 125.975625 207.110331 
L 237.148885 207.110331 
L 237.148885 193.545592 
L 125.975625 193.545592 
z
" clip-path="url(#pf59a80521a)" style="fill: #06a77d; stroke: #333333; stroke-width: 0.6; stroke-linejoin: miter"/>
   </g>
   <g id="patch_13">
    <path d="M 125.975625 190.154408 
L 237.736101 190.154408 
L 237.736101 176.589669 
L 125.975625 176.589669 
z
" clip-path="url(#pf59a80521a)" style="fill: #06a77d; stroke: #333333; stroke-width: 0.6; stroke-linejoin: miter"/>
   </g>
   <g id="patch_14">
    <path d="M 125.975625 173.198485 
L 274.236249 173.198485 
L 274.236249 159.633747 
L 125.975625 159.633747 
z
" clip-path="url(#pf59a80521a)" style="fill: #052f5f; stroke: #333333; stroke-width: 0.6; stroke-linejoin: miter"/>
   </g>
   <g id="patch_15">
    <path d="M 125.975625 156.242562 
L 278.838527 156.242562 
L 278.838527 142.677824 
L 125.975625 142.677824 
z
" clip-path="url(#pf59a80521a)" style="fill: #06a77d; stroke: #333333; stroke-width: 0.6; stroke-linejoin: miter"/>
   </g>
   <g id="patch_16">
    <path d="M 125.975625 139.286639 
L 327.823737 139.286639 
L 327.823737 125.721901 
L 125.975625 125.721901 
z
" clip-path="url(#pf59a80521a)" style="fill: #052f5f; stroke: #333333; stroke-width: 0.6; stroke-linejoin: miter"/>
   </g>
   <g id="patch_17">
    <path d="M 125.975625 122.330716 
L 329.405222 122.330716 
L 329.405222 108.765978 
L 125.975625 108.765978 
z
" clip-path="url(#pf59a80521a)" style="fill: #052f5f; stroke: #333333; stroke-width: 0.6; stroke-linejoin: miter"/>
   </g>
   <g id="patch_18">
    <path d="M 125.975625 105.374793 
L 346.644411 105.374793 
L 346.644411 91.810055 
L 125.975625 91.810055 
z
" clip-path="url(#pf59a80521a)" style="fill: #052f5f; stroke: #333333; stroke-width: 0.6; stroke-linejoin: miter"/>
   </g>
   <g id="patch_19">
    <path d="M 125.975625 88.418871 
L 394.307766 88.418871 
L 394.307766 74.854132 
L 125.975625 74.854132 
z
" clip-path="url(#pf59a80521a)" style="fill: #052f5f; stroke: #333333; stroke-width: 0.6; stroke-linejoin: miter"/>
   </g>
   <g id="patch_20">
    <path d="M 125.975625 71.462948 
L 495.906324 71.462948 
L 495.906324 57.898209 
L 125.975625 57.898209 
z
" clip-path="url(#pf59a80521a)" style="fill: #052f5f; stroke: #333333; stroke-width: 0.6; stroke-linejoin: miter"/>
   </g>
   <g id="patch_21">
    <path d="M 125.975625 54.507025 
L 619.72956 54.507025 
L 619.72956 40.942287 
L 125.975625 40.942287 
z
" clip-path="url(#pf59a80521a)" style="fill: #f1a208; stroke: #333333; stroke-width: 0.6; stroke-linejoin: miter"/>
   </g>
   <g id="patch_22">
    <path d="M 125.975625 37.551102 
L 669.50476 37.551102 
L 669.50476 23.986364 
L 125.975625 23.986364 
z
" clip-path="url(#pf59a80521a)" style="fill: #052f5f; stroke: #333333; stroke-width: 0.6; stroke-linejoin: miter"/>
   </g>
   <g id="patch_23">
    <path d="M 125.975625 376.5 
L 125.975625 7.2 
" style="fill: none; stroke: #000000; stroke-linejoin: miter; stroke-linecap: square"/>
   </g>
   <g id="patch_24">
    <path d="M 125.975625 376.5 
L 696.681216 376.5 
" style="fill: none; stroke: #000000; stroke-linejoin: miter; stroke-linecap: square"/>
   </g>
   <g id="text_30">
    <!-- +0.041 -->
    <g transform="translate(202.74571 355.414705) scale(0.09 -0.09)">
     <defs>
      <path id="DejaVuSans-2b" d="M 2944 4013 
L 2944 2272 
L 4684 2272 
L 4684 1741 
L 2944 1741 
L 2944 0 
L 2419 0 
L 2419 1741 
L 678 1741 
L 678 2272 
L 2419 2272 
L 2419 4013 
L 2944 4013 
z
" transform="scale(0.015625)"/>
      <path id="DejaVuSans-34" d="M 2419 4116 
L 825 1625 
L 2419 1625 
L 2419 4116 
z
M 2253 4666 
L 3047 4666 
L 3047 1625 
L 3713 1625 
L 3713 1100 
L 3047 1100 
L 3047 0 
L 2419 0 
L 2419 1100 
L 313 1100 
L 313 1709 
L 2253 4666 
z
" transform="scale(0.015625)"/>
     </defs>
     <use xlink:href="#DejaVuSans-2b"/>
     <use xlink:href="#DejaVuSans-30" transform="translate(83.789062 0)"/>
     <use xlink:href="#DejaVuSans-2e" transform="translate(147.412109 0)"/>
     <use xlink:href="#DejaVuSans-30" transform="translate(179.199219 0)"/>
     <use xlink:href="#DejaVuSans-34" transform="translate(242.822266 0)"/>
     <use xlink:href="#DejaVuSans-31" transform="translate(306.445312 0)"/>
    </g>
   </g>
   <g id="text_31">
    <!-- +0.046 -->
    <g transform="translate(212.414712 338.458782) scale(0.09 -0.09)">
     <use xlink:href="#DejaVuSans-2b"/>
     <use xlink:href="#DejaVuSans-30" transform="translate(83.789062 0)"/>
     <use xlink:href="#DejaVuSans-2e" transform="translate(147.412109 0)"/>
     <use xlink:href="#DejaVuSans-30" transform="translate(179.199219 0)"/>
     <use xlink:href="#DejaVuSans-34" transform="translate(242.822266 0)"/>
     <use xlink:href="#DejaVuSans-36" transform="translate(306.445312 0)"/>
    </g>
   </g>
   <g id="text_32">
    <!-- +0.048 -->
    <g transform="translate(215.272484 321.502859) scale(0.09 -0.09)">
     <defs>
      <path id="DejaVuSans-38" d="M 2034 2216 
Q 1584 2216 1326 1975 
Q 1069 1734 1069 1313 
Q 1069 891 1326 650 
Q 1584 409 2034 409 
Q 2484 409 2743 651 
Q 3003 894 3003 1313 
Q 3003 1734 2745 1975 
Q 2488 2216 2034 2216 
z
M 1403 2484 
Q 997 2584 770 2862 
Q 544 3141 544 3541 
Q 544 4100 942 4425 
Q 1341 4750 2034 4750 
Q 2731 4750 3128 4425 
Q 3525 4100 3525 3541 
Q 3525 3141 3298 2862 
Q 3072 2584 2669 2484 
Q 3125 2378 3379 2068 
Q 3634 1759 3634 1313 
Q 3634 634 3220 271 
Q 2806 -91 2034 -91 
Q 1263 -91 848 271 
Q 434 634 434 1313 
Q 434 1759 690 2068 
Q 947 2378 1403 2484 
z
M 1172 3481 
Q 1172 3119 1398 2916 
Q 1625 2713 2034 2713 
Q 2441 2713 2670 2916 
Q 2900 3119 2900 3481 
Q 2900 3844 2670 4047 
Q 2441 4250 2034 4250 
Q 1625 4250 1398 4047 
Q 1172 3844 1172 3481 
z
" transform="scale(0.015625)"/>
     </defs>
     <use xlink:href="#DejaVuSans-2b"/>
     <use xlink:href="#DejaVuSans-30" transform="translate(83.789062 0)"/>
     <use xlink:href="#DejaVuSans-2e" transform="translate(147.412109 0)"/>
     <use xlink:href="#DejaVuSans-30" transform="translate(179.199219 0)"/>
     <use xlink:href="#DejaVuSans-34" transform="translate(242.822266 0)"/>
     <use xlink:href="#DejaVuSans-38" transform="translate(306.445312 0)"/>
    </g>
   </g>
   <g id="text_33">
    <!-- +0.049 -->
    <g transform="translate(217.150171 304.546936) scale(0.09 -0.09)">
     <defs>
      <path id="DejaVuSans-39" d="M 703 97 
L 703 672 
Q 941 559 1184 500 
Q 1428 441 1663 441 
Q 2288 441 2617 861 
Q 2947 1281 2994 2138 
Q 2813 1869 2534 1725 
Q 2256 1581 1919 1581 
Q 1219 1581 811 2004 
Q 403 2428 403 3163 
Q 403 3881 828 4315 
Q 1253 4750 1959 4750 
Q 2769 4750 3195 4129 
Q 3622 3509 3622 2328 
Q 3622 1225 3098 567 
Q 2575 -91 1691 -91 
Q 1453 -91 1209 -44 
Q 966 3 703 97 
z
M 1959 2075 
Q 2384 2075 2632 2365 
Q 2881 2656 2881 3163 
Q 2881 3666 2632 3958 
Q 2384 4250 1959 4250 
Q 1534 4250 1286 3958 
Q 1038 3666 1038 3163 
Q 1038 2656 1286 2365 
Q 1534 2075 1959 2075 
z
" transform="scale(0.015625)"/>
     </defs>
     <use xlink:href="#DejaVuSans-2b"/>
     <use xlink:href="#DejaVuSans-30" transform="translate(83.789062 0)"/>
     <use xlink:href="#DejaVuSans-2e" transform="translate(147.412109 0)"/>
     <use xlink:href="#DejaVuSans-30" transform="translate(179.199219 0)"/>
     <use xlink:href="#DejaVuSans-34" transform="translate(242.822266 0)"/>
     <use xlink:href="#DejaVuSans-39" transform="translate(306.445312 0)"/>
    </g>
   </g>
   <g id="text_34">
    <!-- +0.049 -->
    <g transform="translate(218.693762 287.591013) scale(0.09 -0.09)">
     <use xlink:href="#DejaVuSans-2b"/>
     <use xlink:href="#DejaVuSans-30" transform="translate(83.789062 0)"/>
     <use xlink:href="#DejaVuSans-2e" transform="translate(147.412109 0)"/>
     <use xlink:href="#DejaVuSans-30" transform="translate(179.199219 0)"/>
     <use xlink:href="#DejaVuSans-34" transform="translate(242.822266 0)"/>
     <use xlink:href="#DejaVuSans-39" transform="translate(306.445312 0)"/>
    </g>
   </g>
   <g id="text_35">
    <!-- +0.052 -->
    <g transform="translate(223.355582 270.63509) scale(0.09 -0.09)">
     <use xlink:href="#DejaVuSans-2b"/>
     <use xlink:href="#DejaVuSans-30" transform="translate(83.789062 0)"/>
     <use xlink:href="#DejaVuSans-2e" transform="translate(147.412109 0)"/>
     <use xlink:href="#DejaVuSans-30" transform="translate(179.199219 0)"/>
     <use xlink:href="#DejaVuSans-35" transform="translate(242.822266 0)"/>
     <use xlink:href="#DejaVuSans-32" transform="translate(306.445312 0)"/>
    </g>
   </g>
   <g id="text_36">
    <!-- +0.052 -->
    <g transform="translate(223.679552 253.679168) scale(0.09 -0.09)">
     <use xlink:href="#DejaVuSans-2b"/>
     <use xlink:href="#DejaVuSans-30" transform="translate(83.789062 0)"/>
     <use xlink:href="#DejaVuSans-2e" transform="translate(147.412109 0)"/>
     <use xlink:href="#DejaVuSans-30" transform="translate(179.199219 0)"/>
     <use xlink:href="#DejaVuSans-35" transform="translate(242.822266 0)"/>
     <use xlink:href="#DejaVuSans-32" transform="translate(306.445312 0)"/>
    </g>
   </g>
   <g id="text_37">
    <!-- +0.055 -->
    <g transform="translate(228.664278 236.723245) scale(0.09 -0.09)">
     <use xlink:href="#DejaVuSans-2b"/>
     <use xlink:href="#DejaVuSans-30" transform="translate(83.789062 0)"/>
     <use xlink:href="#DejaVuSans-2e" transform="translate(147.412109 0)"/>
     <use xlink:href="#DejaVuSans-30" transform="translate(179.199219 0)"/>
     <use xlink:href="#DejaVuSans-35" transform="translate(242.822266 0)"/>
     <use xlink:href="#DejaVuSans-35" transform="translate(306.445312 0)"/>
    </g>
   </g>
   <g id="text_38">
    <!-- +0.060 -->
    <g transform="translate(237.268651 219.767322) scale(0.09 -0.09)">
     <use xlink:href="#DejaVuSans-2b"/>
     <use xlink:href="#DejaVuSans-30" transform="translate(83.789062 0)"/>
     <use xlink:href="#DejaVuSans-2e" transform="translate(147.412109 0)"/>
     <use xlink:href="#DejaVuSans-30" transform="translate(179.199219 0)"/>
     <use xlink:href="#DejaVuSans-36" transform="translate(242.822266 0)"/>
     <use xlink:href="#DejaVuSans-30" transform="translate(306.445312 0)"/>
    </g>
   </g>
   <g id="text_39">
    <!-- +0.061 -->
    <g transform="translate(238.985614 202.811399) scale(0.09 -0.09)">
     <use xlink:href="#DejaVuSans-2b"/>
     <use xlink:href="#DejaVuSans-30" transform="translate(83.789062 0)"/>
     <use xlink:href="#DejaVuSans-2e" transform="translate(147.412109 0)"/>
     <use xlink:href="#DejaVuSans-30" transform="translate(179.199219 0)"/>
     <use xlink:href="#DejaVuSans-36" transform="translate(242.822266 0)"/>
     <use xlink:href="#DejaVuSans-31" transform="translate(306.445312 0)"/>
    </g>
   </g>
   <g id="text_40">
    <!-- +0.061 -->
    <g transform="translate(239.572829 185.855476) scale(0.09 -0.09)">
     <use xlink:href="#DejaVuSans-2b"/>
     <use xlink:href="#DejaVuSans-30" transform="translate(83.789062 0)"/>
     <use xlink:href="#DejaVuSans-2e" transform="translate(147.412109 0)"/>
     <use xlink:href="#DejaVuSans-30" transform="translate(179.199219 0)"/>
     <use xlink:href="#DejaVuSans-36" transform="translate(242.822266 0)"/>
     <use xlink:href="#DejaVuSans-31" transform="translate(306.445312 0)"/>
    </g>
   </g>
   <g id="text_41">
    <!-- +0.081 -->
    <g transform="translate(276.072977 168.899553) scale(0.09 -0.09)">
     <use xlink:href="#DejaVuSans-2b"/>
     <use xlink:href="#DejaVuSans-30" transform="translate(83.789062 0)"/>
     <use xlink:href="#DejaVuSans-2e" transform="translate(147.412109 0)"/>
     <use xlink:href="#DejaVuSans-30" transform="translate(179.199219 0)"/>
     <use xlink:href="#DejaVuSans-38" transform="translate(242.822266 0)"/>
     <use xlink:href="#DejaVuSans-31" transform="translate(306.445312 0)"/>
    </g>
   </g>
   <g id="text_42">
    <!-- +0.083 -->
    <g transform="translate(280.675256 151.94363) scale(0.09 -0.09)">
     <use xlink:href="#DejaVuSans-2b"/>
     <use xlink:href="#DejaVuSans-30" transform="translate(83.789062 0)"/>
     <use xlink:href="#DejaVuSans-2e" transform="translate(147.412109 0)"/>
     <use xlink:href="#DejaVuSans-30" transform="translate(179.199219 0)"/>
     <use xlink:href="#DejaVuSans-38" transform="translate(242.822266 0)"/>
     <use xlink:href="#DejaVuSans-33" transform="translate(306.445312 0)"/>
    </g>
   </g>
   <g id="text_43">
    <!-- +0.110 -->
    <g transform="translate(329.660465 134.987707) scale(0.09 -0.09)">
     <use xlink:href="#DejaVuSans-2b"/>
     <use xlink:href="#DejaVuSans-30" transform="translate(83.789062 0)"/>
     <use xlink:href="#DejaVuSans-2e" transform="translate(147.412109 0)"/>
     <use xlink:href="#DejaVuSans-31" transform="translate(179.199219 0)"/>
     <use xlink:href="#DejaVuSans-31" transform="translate(242.822266 0)"/>
     <use xlink:href="#DejaVuSans-30" transform="translate(306.445312 0)"/>
    </g>
   </g>
   <g id="text_44">
    <!-- +0.111 -->
    <g transform="translate(331.24195 118.031785) scale(0.09 -0.09)">
     <use xlink:href="#DejaVuSans-2b"/>
     <use xlink:href="#DejaVuSans-30" transform="translate(83.789062 0)"/>
     <use xlink:href="#DejaVuSans-2e" transform="translate(147.412109 0)"/>
     <use xlink:href="#DejaVuSans-31" transform="translate(179.199219 0)"/>
     <use xlink:href="#DejaVuSans-31" transform="translate(242.822266 0)"/>
     <use xlink:href="#DejaVuSans-31" transform="translate(306.445312 0)"/>
    </g>
   </g>
   <g id="text_45">
    <!-- +0.120 -->
    <g transform="translate(348.481139 101.075862) scale(0.09 -0.09)">
     <use xlink:href="#DejaVuSans-2b"/>
     <use xlink:href="#DejaVuSans-30" transform="translate(83.789062 0)"/>
     <use xlink:href="#DejaVuSans-2e" transform="translate(147.412109 0)"/>
     <use xlink:href="#DejaVuSans-31" transform="translate(179.199219 0)"/>
     <use xlink:href="#DejaVuSans-32" transform="translate(242.822266 0)"/>
     <use xlink:href="#DejaVuSans-30" transform="translate(306.445312 0)"/>
    </g>
   </g>
   <g id="text_46">
    <!-- +0.146 -->
    <g transform="translate(396.144494 84.119939) scale(0.09 -0.09)">
     <use xlink:href="#DejaVuSans-2b"/>
     <use xlink:href="#DejaVuSans-30" transform="translate(83.789062 0)"/>
     <use xlink:href="#DejaVuSans-2e" transform="translate(147.412109 0)"/>
     <use xlink:href="#DejaVuSans-31" transform="translate(179.199219 0)"/>
     <use xlink:href="#DejaVuSans-34" transform="translate(242.822266 0)"/>
     <use xlink:href="#DejaVuSans-36" transform="translate(306.445312 0)"/>
    </g>
   </g>
   <g id="text_47">
    <!-- +0.201 -->
    <g transform="translate(497.743052 67.164016) scale(0.09 -0.09)">
     <use xlink:href="#DejaVuSans-2b"/>
     <use xlink:href="#DejaVuSans-30" transform="translate(83.789062 0)"/>
     <use xlink:href="#DejaVuSans-2e" transform="translate(147.412109 0)"/>
     <use xlink:href="#DejaVuSans-32" transform="translate(179.199219 0)"/>
     <use xlink:href="#DejaVuSans-30" transform="translate(242.822266 0)"/>
     <use xlink:href="#DejaVuSans-31" transform="translate(306.445312 0)"/>
    </g>
   </g>
   <g id="text_48">
    <!-- +0.269 -->
    <g transform="translate(621.566288 50.208093) scale(0.09 -0.09)">
     <use xlink:href="#DejaVuSans-2b"/>
     <use xlink:href="#DejaVuSans-30" transform="translate(83.789062 0)"/>
     <use xlink:href="#DejaVuSans-2e" transform="translate(147.412109 0)"/>
     <use xlink:href="#DejaVuSans-32" transform="translate(179.199219 0)"/>
     <use xlink:href="#DejaVuSans-36" transform="translate(242.822266 0)"/>
     <use xlink:href="#DejaVuSans-39" transform="translate(306.445312 0)"/>
    </g>
   </g>
   <g id="text_49">
    <!-- +0.296 -->
    <g transform="translate(671.341488 33.25217) scale(0.09 -0.09)">
     <use xlink:href="#DejaVuSans-2b"/>
     <use xlink:href="#DejaVuSans-30" transform="translate(83.789062 0)"/>
     <use xlink:href="#DejaVuSans-2e" transform="translate(147.412109 0)"/>
     <use xlink:href="#DejaVuSans-32" transform="translate(179.199219 0)"/>
     <use xlink:href="#DejaVuSans-39" transform="translate(242.822266 0)"/>
     <use xlink:href="#DejaVuSans-36" transform="translate(306.445312 0)"/>
    </g>
   </g>
   <g id="legend_1">
    <g id="patch_25">
     <path d="M 606.401373 372 
L 690.381216 372 
Q 692.181216 372 692.181216 370.2 
L 692.181216 318.25875 
Q 692.181216 316.45875 690.381216 316.45875 
L 606.401373 316.45875 
Q 604.601373 316.45875 604.601373 318.25875 
L 604.601373 370.2 
Q 604.601373 372 606.401373 372 
z
" style="fill: #ffffff; opacity: 0.8; stroke: #000000; stroke-linejoin: miter"/>
    </g>
    <g id="patch_26">
     <path d="M 608.201373 326.897344 
L 626.201373 326.897344 
L 626.201373 320.597344 
L 608.201373 320.597344 
z
" style="fill: #f1a208; stroke: #f1a208; stroke-linejoin: miter"/>
    </g>
    <g id="text_50">
     <!-- frequency -->
     <g style="fill: #262626" transform="translate(633.401373 326.897344) scale(0.09 -0.09)">
      <defs>
       <path id="DejaVuSans-66" d="M 2375 4863 
L 2375 4384 
L 1825 4384 
Q 1516 4384 1395 4259 
Q 1275 4134 1275 3809 
L 1275 3500 
L 2222 3500 
L 2222 3053 
L 1275 3053 
L 1275 0 
L 697 0 
L 697 3053 
L 147 3053 
L 147 3500 
L 697 3500 
L 697 3744 
Q 697 4328 969 4595 
Q 1241 4863 1831 4863 
L 2375 4863 
z
" transform="scale(0.015625)"/>
       <path id="DejaVuSans-79" d="M 2059 -325 
Q 1816 -950 1584 -1140 
Q 1353 -1331 966 -1331 
L 506 -1331 
L 506 -850 
L 844 -850 
Q 1081 -850 1212 -737 
Q 1344 -625 1503 -206 
L 1606 56 
L 191 3500 
L 800 3500 
L 1894 763 
L 2988 3500 
L 3597 3500 
L 2059 -325 
z
" transform="scale(0.015625)"/>
      </defs>
      <use xlink:href="#DejaVuSans-66"/>
      <use xlink:href="#DejaVuSans-72" transform="translate(35.205078 0)"/>
      <use xlink:href="#DejaVuSans-65" transform="translate(74.068359 0)"/>
      <use xlink:href="#DejaVuSans-71" transform="translate(135.591797 0)"/>
      <use xlink:href="#DejaVuSans-75" transform="translate(199.068359 0)"/>
      <use xlink:href="#DejaVuSans-65" transform="translate(262.447266 0)"/>
      <use xlink:href="#DejaVuSans-6e" transform="translate(323.970703 0)"/>
      <use xlink:href="#DejaVuSans-63" transform="translate(387.349609 0)"/>
      <use xlink:href="#DejaVuSans-79" transform="translate(442.330078 0)"/>
     </g>
    </g>
    <g id="patch_27">
     <path d="M 608.201373 340.107656 
L 626.201373 340.107656 
L 626.201373 333.807656 
L 608.201373 333.807656 
z
" style="fill: #06a77d; stroke: #06a77d; stroke-linejoin: miter"/>
    </g>
    <g id="text_51">
     <!-- window -->
     <g style="fill: #262626" transform="translate(633.401373 340.107656) scale(0.09 -0.09)">
      <defs>
       <path id="DejaVuSans-77" d="M 269 3500 
L 844 3500 
L 1563 769 
L 2278 3500 
L 2956 3500 
L 3675 769 
L 4391 3500 
L 4966 3500 
L 4050 0 
L 3372 0 
L 2619 2869 
L 1863 0 
L 1184 0 
L 269 3500 
z
" transform="scale(0.015625)"/>
      </defs>
      <use xlink:href="#DejaVuSans-77"/>
      <use xlink:href="#DejaVuSans-69" transform="translate(81.787109 0)"/>
      <use xlink:href="#DejaVuSans-6e" transform="translate(109.570312 0)"/>
      <use xlink:href="#DejaVuSans-64" transform="translate(172.949219 0)"/>
      <use xlink:href="#DejaVuSans-6f" transform="translate(236.425781 0)"/>
      <use xlink:href="#DejaVuSans-77" transform="translate(297.607422 0)"/>
     </g>
    </g>
    <g id="patch_28">
     <path d="M 608.201373 353.317969 
L 626.201373 353.317969 
L 626.201373 347.017969 
L 608.201373 347.017969 
z
" style="fill: #037d7a; stroke: #037d7a; stroke-linejoin: miter"/>
    </g>
    <g id="text_52">
     <!-- missingness -->
     <g style="fill: #262626" transform="translate(633.401373 353.317969) scale(0.09 -0.09)">
      <defs>
       <path id="DejaVuSans-67" d="M 2906 1791 
Q 2906 2416 2648 2759 
Q 2391 3103 1925 3103 
Q 1463 3103 1205 2759 
Q 947 2416 947 1791 
Q 947 1169 1205 825 
Q 1463 481 1925 481 
Q 2391 481 2648 825 
Q 2906 1169 2906 1791 
z
M 3481 434 
Q 3481 -459 3084 -895 
Q 2688 -1331 1869 -1331 
Q 1566 -1331 1297 -1286 
Q 1028 -1241 775 -1147 
L 775 -588 
Q 1028 -725 1275 -790 
Q 1522 -856 1778 -856 
Q 2344 -856 2625 -561 
Q 2906 -266 2906 331 
L 2906 616 
Q 2728 306 2450 153 
Q 2172 0 1784 0 
Q 1141 0 747 490 
Q 353 981 353 1791 
Q 353 2603 747 3093 
Q 1141 3584 1784 3584 
Q 2172 3584 2450 3431 
Q 2728 3278 2906 2969 
L 2906 3500 
L 3481 3500 
L 3481 434 
z
" transform="scale(0.015625)"/>
      </defs>
      <use xlink:href="#DejaVuSans-6d"/>
      <use xlink:href="#DejaVuSans-69" transform="translate(97.412109 0)"/>
      <use xlink:href="#DejaVuSans-73" transform="translate(125.195312 0)"/>
      <use xlink:href="#DejaVuSans-73" transform="translate(177.294922 0)"/>
      <use xlink:href="#DejaVuSans-69" transform="translate(229.394531 0)"/>
      <use xlink:href="#DejaVuSans-6e" transform="translate(257.177734 0)"/>
      <use xlink:href="#DejaVuSans-67" transform="translate(320.556641 0)"/>
      <use xlink:href="#DejaVuSans-6e" transform="translate(384.033203 0)"/>
      <use xlink:href="#DejaVuSans-65" transform="translate(447.412109 0)"/>
      <use xlink:href="#DejaVuSans-73" transform="translate(508.935547 0)"/>
      <use xlink:href="#DejaVuSans-73" transform="translate(561.035156 0)"/>
     </g>
    </g>
    <g id="patch_29">
     <path d="M 608.201373 366.528281 
L 626.201373 366.528281 
L 626.201373 360.228281 
L 608.201373 360.228281 
z
" style="fill: #052f5f; stroke: #052f5f; stroke-linejoin: miter"/>
    </g>
    <g id="text_53">
     <!-- raw -->
     <g style="fill: #262626" transform="translate(633.401373 366.528281) scale(0.09 -0.09)">
      <use xlink:href="#DejaVuSans-72"/>
      <use xlink:href="#DejaVuSans-61" transform="translate(41.113281 0)"/>
      <use xlink:href="#DejaVuSans-77" transform="translate(102.392578 0)"/>
     </g>
    </g>
   </g>
  </g>
 </g>
 <defs>
  <clipPath id="pf59a80521a">
   <rect x="125.975625" y="7.2" width="570.705591" height="369.3"/>
  </clipPath>
 </defs>
</svg>
